<svg xmlns="http://www.w3.org/2000/svg" width="60.22" height="49.165" viewBox="0 0 60.22 49.165">
  <g id="Asset_1_1" data-name="Asset 1 1" transform="translate(0.193 0.124)">
    <rect id="Asset_1_1-2" data-name="Asset 1 1" width="59.829" height="49" fill="none"/>
    <g id="Asset_6_1" data-name="Asset 6 1">
      <rect id="Asset_6_1-2" data-name="Asset 6 1" width="59.829" height="48.913" fill="none"/>
      <g id="Layer_2" data-name="Layer 2">
        <g id="Layer_1" data-name="Layer 1">
          <path id="Vector" d="M2.263,2.194V3.462H5.976V5.511H2.263V6.643H6.779V8.826H0V0H6.779V2.194Z" transform="translate(41.094 20.063)" fill="#1d1d1b"/>
          <path id="Vector-2" data-name="Vector" d="M2.75,8.826V2.194H0V0H7.765V2.194H5.015V8.826Z" transform="translate(30.481 20.063)" fill="#1d1d1b"/>
          <path id="Vector-3" data-name="Vector" d="M4.1,8.826H0V0H4.1C6.858,0,8.273,2.013,8.273,4.414S6.858,8.826,4.1,8.826Zm1.89-4.412a1.972,1.972,0,0,0-2.06-2.22H2.263V6.643H3.926a1.979,1.979,0,0,0,2.06-2.228Z" transform="translate(51.235 20.063)" fill="#1d1d1b"/>
          <path id="Vector-4" data-name="Vector" d="M2.19,6.349v.058c0,.339.462.8,1.491.8.85,0,1.121-.283,1.121-.543,0-.373-.439-.6-1.5-.961C1.894,5.241.049,4.561.049,2.74.049,1.052,1.485,0,3.5,0,5.571,0,7.122,1.1,7.122,2.853v.124H4.915V2.9c0-.43-.441-.94-1.359-.94-.761,0-1.065.307-1.065.6,0,.349.407.53,1.459.893,1.223.43,3.3,1.155,3.3,3.091,0,1.719-1.493,2.625-3.509,2.625C1.63,9.167,0,8.183,0,6.451v-.1Z" transform="translate(20.625 19.892)" fill="#1d1d1b"/>
          <path id="Vector-5" data-name="Vector" d="M0,0H59.5V1.834H52.047a23.754,23.754,0,0,1-8.708,11.223A23.754,23.754,0,0,1,29.784,17.3a23.754,23.754,0,0,1-13.555-4.247A23.754,23.754,0,0,1,7.52,1.834H0ZM9.346,1.649a21.954,21.954,0,0,0,8.073,10.069,21.954,21.954,0,0,0,12.336,3.793A21.954,21.954,0,0,0,42.09,11.718,21.954,21.954,0,0,0,50.163,1.649H43.94l2.889,2.1-3.813-2.1H40.907l4.423,4.159L39.613,1.649h-1l4.972,6.012L37.2,1.649h-.409l4.845,7.633-6.31-7.633h-.072l4.244,9L34.044,2.058l3.145,9.67-4.327-9.2,1.907,10-3.138-9.67L32.27,13l-1.9-9.99-.639,10.149L29.089,3.012l-1.917,9.979.639-10.147-3.138,9.67L26.59,2.527l-4.329,9.2,3.145-9.67-5.441,8.588,4.235-9h-.072L17.819,9.282l4.836-7.633h-.407L15.857,7.661l4.975-6.012h-1l-5.72,4.159,4.431-4.159H16.436l-3.813,2.1,2.889-2.1Z" transform="translate(0.16 31.501)" fill="#1d1d1b" stroke="#1d1d1b" stroke-linecap="square" stroke-width="0.471"/>
          <path id="Vector-6" data-name="Vector" d="M59.51,15.466v1.873H0V15.466H7.463a23.757,23.757,0,0,1,44.526,0Zm-9.346.187a21.954,21.954,0,0,0-40.817,0h6.223l-2.889-2.1,3.813,2.1H18.6l-4.427-4.161,5.716,4.161h1L15.923,9.642l6.391,6.012h.409L17.877,8.018l6.312,7.635h.072l-4.237-9,5.448,8.588-3.147-9.67,4.34,9.2L24.747,4.789l3.14,9.67L27.248,4.309l1.9,9.99L29.79,4.149,30.429,14.3l1.9-9.99L31.69,14.459l3.14-9.672-1.917,9.988,4.329-9.2L34.1,15.243l5.445-8.586-4.237,9h.075l6.31-7.633-4.845,7.633h.407l6.4-6.012-4.975,6.012h1L45.387,11.5l-4.429,4.159h2.116l3.816-2.1L44,15.654Z" transform="translate(0.16 0.111)" fill="#1d1d1b" stroke="#1d1d1b" stroke-linecap="square" stroke-width="0.471"/>
          <path id="Vector-7" data-name="Vector" d="M2.263,2.194V3.462H5.976V5.511H2.263V6.643H6.779V8.826H0V0H6.779V2.194Z" transform="translate(10.935 20.063)" fill="#1d1d1b"/>
          <path id="Vector-8" data-name="Vector" d="M2.75,8.826V2.194H0V0H7.765V2.194H5.015V8.826Z" transform="translate(0.32 20.063)" fill="#1d1d1b"/>
          <path id="Vector-9" data-name="Vector" d="M20.09,0A22.007,22.007,0,0,1,40.182,13.079H0A22,22,0,0,1,20.09,0Z" transform="translate(9.823 2.501)" fill="none"/>
          <path id="Vector-10" data-name="Vector" d="M0,7.03A21.909,21.909,0,0,1,1.15,0H42.8a22.024,22.024,0,0,1,0,14.061H1.15A21.912,21.912,0,0,1,0,7.03Z" transform="translate(7.94 17.444)" fill="none"/>
          <path id="Vector-11" data-name="Vector" d="M20.09,13.077A22,22,0,0,1,8.108,9.514,22,22,0,0,1,0,0H40.182a22.005,22.005,0,0,1-8.109,9.515A22.005,22.005,0,0,1,20.09,13.077Z" transform="translate(9.823 33.367)" fill="none"/>
          <path id="Vector-12" data-name="Vector" d="M59.51,15.112v1.871H0V15.112H7.454a24.01,24.01,0,0,1,44.6,0Zm-9.668,0a21.971,21.971,0,0,0-40.182,0Z" transform="translate(0.16 0.468)" fill="#1d1d1b" stroke="#1d1d1b" stroke-width="0.707"/>
          <path id="Vector-13" data-name="Vector" d="M59.514,0V1.873H52.057a24.01,24.01,0,0,1-8.831,10.978,24.01,24.01,0,0,1-13.469,4.134,24.01,24.01,0,0,1-13.469-4.134A24.01,24.01,0,0,1,7.457,1.873H0V0H59.514ZM29.754,14.943a22.005,22.005,0,0,0,11.983-3.562,22.005,22.005,0,0,0,8.109-9.515H9.664a22,22,0,0,0,8.108,9.514A22,22,0,0,0,29.754,14.943Z" transform="translate(0.16 31.501)" fill="#1d1d1b" stroke="#1d1d1b" stroke-width="0.707"/>
        </g>
      </g>
    </g>
  </g>
</svg>
