<svg xmlns="http://www.w3.org/2000/svg" width="57" height="57" viewBox="0 0 57 57">
  <g id="Icons_Delivery" data-name="Icons/Delivery" transform="translate(0 0.25)">
    <rect id="Rectangle_12" data-name="Rectangle 12" width="57" height="57" transform="translate(0 -0.25)" fill="none"/>
    <g id="Frame" transform="translate(5.699 12.575)">
      <rect id="Frame-2" data-name="Frame" width="44.175" height="29.925" fill="none"/>
      <g id="Group">
        <path id="Vector" d="M44.179,18.394c-.666.157-1.555.689-1.936.439a2.718,2.718,0,0,1-.857-1.943c-.063-3.98-.032-7.99-.032-11.97,0-1.849-.254-2.1-2.063-2.1-6.886,0-13.741.031-20.628-.031-1.4,0-2,.47-1.968,1.911.063,3.165,0,6.33.032,9.495,0,1.159-.254,2.225-1.587,2.193-1.269-.031-1.46-1.159-1.46-2.193V5.672H11.048c0,1.88-.127,3.854.032,5.8.222,2.757-1.46,4.951-4.855,4.982H2.861c0,2.319-.063,4.575.063,6.831.032.376.666.877,1.111,1.1s1.079,0,1.523.219c.539.282,1.174.721,1.3,1.222.1.376-.508,1.159-.952,1.316-2.221.752-5.744-.47-5.839-3.7-.1-4.011-.1-8.022.032-12C.258,6.549,5.05,2.413,10.064,2.663c.635.031,1.269.031,1.872.063A2.937,2.937,0,0,0,14.856,1.5,4.468,4.468,0,0,1,17.966.063C25.329-.031,32.691.031,40.054,0c2.063,0,3.205,1.222,4.157,2.82-.032,5.17-.032,10.372-.032,15.574ZM2.924,13.537a28.691,28.691,0,0,0,4.03-.063A1.771,1.771,0,0,0,8.16,12.189c.127-2.131.063-4.293.063-6.486-3.713.909-5.522,3.541-5.3,7.834Z" transform="translate(-0.008)" fill="#1d1d1b"/>
        <path id="Vector-2" data-name="Vector" d="M5.427,10.874A5.477,5.477,0,0,1,0,5.391,5.545,5.545,0,0,1,5.713,0a5.456,5.456,0,0,1,5.363,5.546A5.326,5.326,0,0,1,5.427,10.874Zm.1-8.116A2.889,2.889,0,0,0,2.856,5.516,2.747,2.747,0,0,0,5.649,8.086a2.605,2.605,0,0,0,2.6-2.695A2.742,2.742,0,0,0,5.522,2.759Z" transform="translate(8.25 19.051)" fill="#1d1d1b"/>
        <path id="Vector-3" data-name="Vector" d="M5.458,10.874A5.5,5.5,0,0,1,0,5.422,5.523,5.523,0,0,1,5.681,0a5.477,5.477,0,0,1,5.427,5.484,5.412,5.412,0,0,1-5.649,5.39ZM8.219,5.391A2.693,2.693,0,0,0,5.49,2.79,2.835,2.835,0,0,0,2.856,5.547,2.747,2.747,0,0,0,5.649,8.117,2.625,2.625,0,0,0,8.219,5.391Z" transform="translate(30.332 19.051)" fill="#1d1d1b"/>
        <path id="Vector-4" data-name="Vector" d="M4.159.054A10.812,10.812,0,0,1,6.824.117,1.962,1.962,0,0,1,8.094,1.339c.1.376-.6,1.253-.984,1.285A45.785,45.785,0,0,1,.89,2.592C.541,2.561-.03,1.684,0,1.245A1.691,1.691,0,0,1,1.175.117,23.45,23.45,0,0,1,4.159.054Z" transform="translate(20.844 24.481)" fill="#1d1d1b"/>
      </g>
    </g>
  </g>
</svg>
