<svg id="Group_11" data-name="Group 11" xmlns="http://www.w3.org/2000/svg" width="126.094" height="29.638" viewBox="0 0 126.094 29.638">
  <path id="Path_3" data-name="Path 3" d="M278.638,63.52a8.279,8.279,0,0,0,5.3-7.913c.2-4.716-4.257-6.6-5.738-7.19-2.29-.907-7.641-1.962-9.055-2.469a6.274,6.274,0,0,1-1.837-1.033,1.76,1.76,0,0,1,.436-2.828,7.769,7.769,0,0,1,4.022-.785,13.155,13.155,0,0,1,8.408,2.874l3.761-4.514a16.321,16.321,0,0,0-5.872-3.365,19.372,19.372,0,0,0-5.855-.886c-2.4,0-7.3.384-10.324,4.192-1.1,1.39-3.294,6.4,1.121,9.971,2.642,2.139,6.448,3.052,8.653,3.508,1.552.321,4.257,1,5.134,1.874a1.344,1.344,0,0,1,.468,1.142c-.246,2.247-3.362,2.591-5.3,2.591a17.143,17.143,0,0,1-4.928-.781,13.145,13.145,0,0,1-4.691-2.775l-3.5,4.56a14.823,14.823,0,0,0,5.977,3.834c2.183.851,8.439,2.336,13.814-.009" transform="translate(-191.325 -35.161)" fill="#fff"/>
  <path id="Path_4" data-name="Path 4" d="M189.225,36.877V51.885a7.4,7.4,0,0,1-2.044,5.368,7.031,7.031,0,0,1-10.009,0,7.4,7.4,0,0,1-2.044-5.368V36.877l-6.814-.02v14.3c0,4.467,1.175,7.787,3.7,10.447a13.471,13.471,0,0,0,10.109,4.1h.133a13.465,13.465,0,0,0,10.09-4.1c2.522-2.66,3.7-5.98,3.7-10.447V36.9Z" transform="translate(-133.172 -36.089)" fill="#fff"/>
  <path id="Path_5" data-name="Path 5" d="M88.578,64.575a3.177,3.177,0,0,1-2.351,1,3.658,3.658,0,0,1-3.315-2.183L70.064,36.623h7.324L89.1,60.907a3.526,3.526,0,0,1,.321,1.247,3.19,3.19,0,0,1-.846,2.422" transform="translate(-70.064 -35.939)" fill="#fff"/>
  <path id="Path_6" data-name="Path 6" d="M134.3,42.009l-.007.016c-.008.014-.014.028-.021.042l-4.164,8.464a.5.5,0,0,1-.88,0l-4.166-8.469c-.006-.011-.012-.023-.017-.035l-.01-.019h0a5.123,5.123,0,1,1,9.264,0" transform="translate(-105.06 -34.71)" fill="#fff"/>
  <path id="Path_7" data-name="Path 7" d="M356.751,41.433A7.762,7.762,0,0,1,364.4,47.9H349.1a7.762,7.762,0,0,1,7.652-6.465m13.96,11.315c.192-1.087,1.313-8.784-4.506-13.815a14.381,14.381,0,0,0-9.541-3.523,14.674,14.674,0,0,0-2.16,29.175,14.151,14.151,0,0,0,7.414-.755,14.735,14.735,0,0,0,5.293-3.517l-4.693-4.235a7.762,7.762,0,0,1-13.3-3.336H360Z" transform="translate(-244.83 -35.16)" fill="#fff"/>
</svg>
